<?xml version="1.0" encoding="utf-8"?>
<!-- Generator: Adobe Illustrator 22.0.1, SVG Export Plug-In . SVG Version: 6.00 Build 0)  -->
<svg version="1.1" id="레이어_1" xmlns="http://www.w3.org/2000/svg" xmlns:xlink="http://www.w3.org/1999/xlink" x="0px"
	 y="0px" viewBox="0 0 48 48" style="enable-background:new 0 0 48 48;" xml:space="preserve">
<path d="M40.7,36.5H29.1L42.6,23c2.4-2.4,2.4-6.4,0-8.9l-8.2-8.2c-1.2-1.2-2.8-1.8-4.4-1.8c-0.4,0-0.7,0-1.1,0.1l-0.1-0.1l-0.1,0.1
	c-1.1,0.2-2.2,0.8-3.1,1.7L5.4,26c-2.4,2.4-2.4,6.4,0,8.9l6.1,6.1h7.9h5.1h16.1c1.2,0,2.3-1,2.3-2.3C43,37.5,42,36.5,40.7,36.5z
	 M19.4,36.5h-6.1l-4.8-4.8c-0.7-0.7-0.7-1.8,0-2.5l8.2-8.2l10.7,10.7l-4.8,4.8H19.4z"/>
</svg>
