<?xml version="1.0" encoding="utf-8"?>
<!-- Generator: Adobe Illustrator 22.0.1, SVG Export Plug-In . SVG Version: 6.00 Build 0)  -->
<svg version="1.1" id="레이어_1" xmlns="http://www.w3.org/2000/svg" xmlns:xlink="http://www.w3.org/1999/xlink" x="0px"
	 y="0px" viewBox="0 0 48 48" style="enable-background:new 0 0 48 48;" xml:space="preserve">
<g>
	<path d="M34.2,24L12.8,2.5c-0.4-0.4-1-0.7-1.5-0.7s-1.1,0.2-1.5,0.7C9.2,3,9,3.5,9,4.1c0,0.6,0.2,1.1,0.6,1.5l6.1,6.1L3.4,24
		c-0.5,0.5-0.9,1.1-1.2,1.8C2,26.5,1.8,27.2,1.8,28c0,0.7,0.1,1.5,0.4,2.1c0.3,0.7,0.7,1.3,1.2,1.8L15,43.5c0.6,0.5,1.2,0.9,1.8,1.2
		s1.3,0.4,2,0.4s1.3-0.1,2-0.4c0.7-0.3,1.3-0.7,1.8-1.2l11.6-11.6c0.5-0.5,0.9-1.1,1.2-1.8c0.3-0.7,0.4-1.4,0.4-2.1
		c0-0.7-0.1-1.5-0.4-2.1S34.7,24.6,34.2,24z M6,27.7l12.8-12.8l12.8,12.8H6z"/>
	<path d="M45.6,38.8c-0.4-0.9-0.9-1.8-1.5-2.7c-0.4-0.6-0.8-1.2-1.3-1.9c-0.5-0.7-1-1.3-1.5-1.8c-0.5,0.6-1,1.2-1.5,1.8
		c-0.5,0.7-0.9,1.3-1.3,1.9c-0.6,0.9-1.1,1.8-1.5,2.7c-0.4,0.9-0.6,1.7-0.6,2.5c0,1.3,0.5,2.4,1.4,3.4c0.9,0.9,2.1,1.4,3.4,1.4
		c1.4,0,2.5-0.5,3.5-1.4c1-0.9,1.4-2.1,1.4-3.4C46.2,40.5,46,39.7,45.6,38.8z"/>
</g>
</svg>
